<svg xmlns="http://www.w3.org/2000/svg" width="512" height="512" viewBox="0 0 45.63 45.63">
  <path d="M42.295 43.851c-2.729-3.229-7.619-5.691-13.529-6.696-.578-3.461-1.61-5.078-1.637-5.123.45-.211.993-.283 1.613-.146.756.17 1.272.571 1.585 1.079.091.148.323.098.35-.074a1.934 1.934 0 0 0-.059-.832c-.216-.759-.807-1.39-1.577-1.556a2.099 2.099 0 0 0-1.425.2 4.216 4.216 0 0 1 1.471-.807c1.28-.41 2.396-.21 3.264.344a.187.187 0 0 0 .28-.21c-.145-.521-.432-1.032-.964-1.501-.896-.788-2.143-1.13-3.276-.755a3.328 3.328 0 0 0-.986.524l.065-.081c.835-.981 1.838-1.405 2.827-1.429.215-.005.311-.284.146-.423a3.046 3.046 0 0 0-1.344-.642c-1.262-.269-2.59.109-3.392 1.119a3.321 3.321 0 0 0-.604 1.188 3.308 3.308 0 0 0-1.184-.614c-1.24-.352-2.539.116-3.407 1.069-.375.411-.592.84-.707 1.269-.06.221.194.4.385.274.813-.544 1.864-.776 3.101-.47.034.01.067.019.101.027a3.296 3.296 0 0 0-1.108.149c-1.139.355-1.953 1.359-2.222 2.522-.154.67-.098 1.239.076 1.735.063.18.311.184.385.008.391-.938 1.174-1.731 2.434-2.136a4.185 4.185 0 0 1 1.664-.204 2.082 2.082 0 0 0-1.274.669c-.53.584-.641 1.439-.374 2.183.107.3.261.532.441.715.12.123.336.029.323-.142-.045-.597.142-1.217.657-1.797.397-.445.849-.731 1.307-.795-.001 0 .725 1.783.826 4.356a36.45 36.45 0 0 0-3.719-.193c-3.105 0-6.058.387-8.73 1.088.554-12.073 7.984-20.071 7.993-20.111v-.001c.915.605 1.688 1.532 2.188 2.833.651 1.69.539 3.221-.05 4.485-.169.362.227.745.591.576a4.523 4.523 0 0 0 1.551-1.198c1.193-1.401 1.656-3.363.979-5.073a4.898 4.898 0 0 0-2.232-2.51c1.16.322 2.329.909 3.468 1.812 2.418 1.921 3.475 4.301 3.558 6.666.016.444.561.643.846.301.787-.94 1.38-2.138 1.593-3.729.37-2.761-.58-5.622-2.775-7.337a7.688 7.688 0 0 0-2.297-1.239l.243.025c2.952.345 5.058 1.715 6.386 3.572.31.433 1.013.248 1.063-.281.103-1.032-.021-2.146-.501-3.354-1.11-2.796-3.562-4.884-6.561-5.138a7.733 7.733 0 0 0-3.091.366 7.702 7.702 0 0 0-.342-3.089c-.923-2.864-3.51-4.781-6.484-5.234-1.319-.2-2.458-.056-3.46.296-.474.166-.496.855-.031 1.043 2.142.864 3.983 2.612 4.999 5.444.028.077.054.154.079.23a7.68 7.68 0 0 0-1.726-1.957c-2.167-1.751-5.169-2.03-7.774-1.047-1.548.584-2.596 1.468-3.339 2.484a.435.435 0 0 0 .439.688c2.354-.491 4.952-.016 7.408 1.938 1.138.904 1.975 1.909 2.551 2.968a4.878 4.878 0 0 0-2.95-1.607c-1.819-.273-3.626.62-4.721 2.101a4.51 4.51 0 0 0-.813 1.768c-.084.396.383.698.703.449 1.098-.854 2.559-1.305 4.348-1.053 1.469.207 2.596.81 3.404 1.641-.144.123-9.108 6.812-14.981 27.292-.358.34-.691.694-.997 1.056-.602.713-.093 1.811.838 1.811h37.266c.917.005 1.441-1.077.848-1.779z" data-original="#000000" class="active-path" data-old_color="#0ea7b5" fill="#0ea7b5"/>
</svg>